Coordinates
version=1
nRows=27
nColumns=12
inDegrees=yes

Units are S.I. units (second, meters, Newtons, ...)
Angles are in degrees

endheader
time	SC_y	SC_z	SC_x	AC_y	AC_z	AC_x	GH_y	GH_z	GH_yy	EL_x	PS_y
       0.0              -53.25          24.63          48.83          58.34         -7.113         -18.42         -156.7          21.64        -0.1764          75.04          118.2
   0.02234              -53.24          24.63          48.83          58.34         -7.114         -18.42         -156.6          21.64         -0.192          75.04          118.2
   0.04468              -53.24          24.63          48.82          58.33         -7.115         -18.42         -156.6          21.63        -0.2085          75.04          118.2
   0.06702              -53.23          24.63          48.82          58.33         -7.116         -18.42         -156.5          21.63         -0.226          75.04          118.2
   0.08936              -53.23          24.64          48.82          58.33         -7.118         -18.42         -156.5          21.62        -0.2447          75.04          118.2
    0.1117              -53.22          24.64          48.81          58.33         -7.119         -18.42         -156.4          21.61        -0.2646          75.04          118.2
     0.134              -53.21          24.64          48.81          58.33          -7.12         -18.42         -156.3          21.61        -0.2858          75.05          118.1
    0.1564               -53.2          24.64          48.81          58.33         -7.121         -18.42         -156.3           21.6        -0.3086          75.05          118.1
    0.1787              -53.19          24.64           48.8          58.33         -7.123         -18.42         -156.2          21.59        -0.3329          75.05          118.1
    0.2011              -53.18          24.65           48.8          58.33         -7.125         -18.42         -156.1          21.58         -0.359          75.05          118.1
    0.2234              -53.18          24.65          48.79          58.33         -7.126         -18.42         -156.0          21.57        -0.3871          75.05          118.1
    0.2457              -53.16          24.65          48.79          58.33         -7.128         -18.43         -155.9          21.56        -0.4173          75.05          118.0
    0.2681              -53.15          24.65          48.78          58.33          -7.13         -18.43         -155.8          21.55        -0.4498          75.05          118.0
    0.2904              -53.14          24.66          48.78          58.33         -7.132         -18.43         -155.7          21.54        -0.4849          75.05          118.0
    0.3128              -53.13          24.66          48.77          58.33         -7.135         -18.43         -155.6          21.52         -0.523          75.05          118.0
    0.3351              -53.11          24.66          48.77          58.33         -7.137         -18.43         -155.5          21.51        -0.5642          75.06          118.0
    0.3575               -53.1          24.67          48.76          58.32          -7.14         -18.43         -155.3           21.5         -0.609          75.06          117.9
    0.3798              -53.08          24.67          48.75          58.32         -7.143         -18.43         -155.2          21.48        -0.6579          75.06          117.9
    0.4021              -53.06          24.68          48.74          58.32         -7.146         -18.43         -155.0          21.46        -0.7112          75.06          117.9
    0.4245              -53.04          24.68          48.73          58.32          -7.15         -18.43         -154.8          21.44        -0.7696          75.06          117.8
    0.4468              -53.02          24.69          48.72          58.32         -7.154         -18.43         -154.6          21.42        -0.8337          75.07          117.8
    0.4692              -52.99           24.7          48.71          58.32         -7.158         -18.43         -154.4           21.4        -0.9043          75.07          117.7
    0.4915              -52.96           24.7           48.7          58.32         -7.163         -18.43         -154.1          21.37        -0.9822          75.07          117.7
    0.5138              -52.93          24.71          48.68          58.31         -7.168         -18.43         -153.9          21.34         -1.069          75.08          117.6
    0.5362               -52.9          24.72          48.67          58.31         -7.174         -18.43         -153.6          21.31         -1.165          75.08          117.6
    0.5585              -52.86          24.73          48.65          58.31          -7.18         -18.43         -153.2          21.27         -1.272          75.08          117.5
    0.5809              -52.82          24.74          48.63          58.31         -7.188         -18.43         -152.9          21.23         -1.392          75.09          117.4
